<mxfile host="app.diagrams.net" modified="2023-03-28T10:44:35.285Z" agent="Mozilla/5.0 (X11; Linux x86_64) AppleWebKit/537.36 (KHTML, like Gecko) Chrome/97.0.4692.99 Safari/537.36" etag="Gmh7JZZ75D1kD9XmsX03" version="21.1.1" type="device">
  <diagram name="Страница 1" id="oURIykmedvFEBrg1r6g3">
    <mxGraphModel dx="1434" dy="1940" grid="1" gridSize="10" guides="1" tooltips="1" connect="1" arrows="1" fold="1" page="1" pageScale="1" pageWidth="827" pageHeight="1169" math="0" shadow="0">
      <root>
        <mxCell id="0" />
        <mxCell id="1" parent="0" />
        <mxCell id="3APpipOa2k8dco2jOD3p-10" style="edgeStyle=orthogonalEdgeStyle;rounded=0;orthogonalLoop=1;jettySize=auto;html=1;exitX=1;exitY=0.5;exitDx=0;exitDy=0;entryX=0;entryY=0.5;entryDx=0;entryDy=0;" edge="1" parent="1" source="728Wsy-rSLTI5qKPh7U2-2" target="3APpipOa2k8dco2jOD3p-9">
          <mxGeometry relative="1" as="geometry" />
        </mxCell>
        <mxCell id="728Wsy-rSLTI5qKPh7U2-2" value="kafka&lt;br&gt;" style="rounded=1;whiteSpace=wrap;html=1;" parent="1" vertex="1">
          <mxGeometry x="210" y="180" width="90" height="40" as="geometry" />
        </mxCell>
        <mxCell id="728Wsy-rSLTI5qKPh7U2-11" style="edgeStyle=orthogonalEdgeStyle;rounded=0;orthogonalLoop=1;jettySize=auto;html=1;exitX=0.75;exitY=0;exitDx=0;exitDy=0;entryX=0;entryY=0.5;entryDx=0;entryDy=0;" parent="1" source="728Wsy-rSLTI5qKPh7U2-3" target="728Wsy-rSLTI5qKPh7U2-9" edge="1">
          <mxGeometry relative="1" as="geometry">
            <mxPoint x="766" y="45" as="targetPoint" />
          </mxGeometry>
        </mxCell>
        <mxCell id="728Wsy-rSLTI5qKPh7U2-12" style="edgeStyle=orthogonalEdgeStyle;rounded=0;orthogonalLoop=1;jettySize=auto;html=1;exitX=1;exitY=0.5;exitDx=0;exitDy=0;entryX=-0.01;entryY=0.392;entryDx=0;entryDy=0;entryPerimeter=0;" parent="1" source="728Wsy-rSLTI5qKPh7U2-3" target="728Wsy-rSLTI5qKPh7U2-7" edge="1">
          <mxGeometry relative="1" as="geometry" />
        </mxCell>
        <mxCell id="728Wsy-rSLTI5qKPh7U2-22" style="edgeStyle=orthogonalEdgeStyle;rounded=0;orthogonalLoop=1;jettySize=auto;html=1;exitX=1;exitY=0.5;exitDx=0;exitDy=0;entryX=0;entryY=0.5;entryDx=0;entryDy=0;" parent="1" source="728Wsy-rSLTI5qKPh7U2-3" target="3APpipOa2k8dco2jOD3p-7" edge="1">
          <mxGeometry relative="1" as="geometry">
            <mxPoint x="806" y="245" as="targetPoint" />
          </mxGeometry>
        </mxCell>
        <mxCell id="3APpipOa2k8dco2jOD3p-16" style="edgeStyle=orthogonalEdgeStyle;rounded=0;orthogonalLoop=1;jettySize=auto;html=1;exitX=0.25;exitY=0;exitDx=0;exitDy=0;entryX=0;entryY=0.5;entryDx=0;entryDy=0;" edge="1" parent="1" source="728Wsy-rSLTI5qKPh7U2-3" target="728Wsy-rSLTI5qKPh7U2-27">
          <mxGeometry relative="1" as="geometry" />
        </mxCell>
        <mxCell id="728Wsy-rSLTI5qKPh7U2-3" value="transaction scoring&lt;br&gt;service" style="rounded=1;whiteSpace=wrap;html=1;" parent="1" vertex="1">
          <mxGeometry x="580" y="160" width="120" height="80" as="geometry" />
        </mxCell>
        <mxCell id="728Wsy-rSLTI5qKPh7U2-15" style="edgeStyle=orthogonalEdgeStyle;rounded=0;orthogonalLoop=1;jettySize=auto;html=1;exitX=1;exitY=0.5;exitDx=0;exitDy=0;" parent="1" source="728Wsy-rSLTI5qKPh7U2-5" target="728Wsy-rSLTI5qKPh7U2-2" edge="1">
          <mxGeometry relative="1" as="geometry" />
        </mxCell>
        <mxCell id="728Wsy-rSLTI5qKPh7U2-5" value="gatling" style="rounded=1;whiteSpace=wrap;html=1;" parent="1" vertex="1">
          <mxGeometry x="40" y="180" width="90" height="40" as="geometry" />
        </mxCell>
        <mxCell id="728Wsy-rSLTI5qKPh7U2-7" value="kibana" style="rounded=1;whiteSpace=wrap;html=1;" parent="1" vertex="1">
          <mxGeometry x="806" y="130" width="90" height="40" as="geometry" />
        </mxCell>
        <mxCell id="728Wsy-rSLTI5qKPh7U2-26" style="edgeStyle=orthogonalEdgeStyle;rounded=0;orthogonalLoop=1;jettySize=auto;html=1;exitX=1;exitY=0.5;exitDx=0;exitDy=0;entryX=0;entryY=0.5;entryDx=0;entryDy=0;" parent="1" source="728Wsy-rSLTI5qKPh7U2-9" target="728Wsy-rSLTI5qKPh7U2-25" edge="1">
          <mxGeometry relative="1" as="geometry" />
        </mxCell>
        <mxCell id="728Wsy-rSLTI5qKPh7U2-9" value="prometheus" style="rounded=1;whiteSpace=wrap;html=1;" parent="1" vertex="1">
          <mxGeometry x="806" y="50" width="90" height="40" as="geometry" />
        </mxCell>
        <mxCell id="728Wsy-rSLTI5qKPh7U2-25" value="grafana" style="rounded=1;whiteSpace=wrap;html=1;" parent="1" vertex="1">
          <mxGeometry x="926" y="50" width="90" height="40" as="geometry" />
        </mxCell>
        <mxCell id="728Wsy-rSLTI5qKPh7U2-27" value="Some external api service" style="rounded=1;whiteSpace=wrap;html=1;" parent="1" vertex="1">
          <mxGeometry x="896" y="-60" width="120" height="50" as="geometry" />
        </mxCell>
        <mxCell id="728Wsy-rSLTI5qKPh7U2-33" value="Transaction scoring pipeline&amp;nbsp;" style="text;html=1;strokeColor=none;fillColor=none;align=center;verticalAlign=middle;whiteSpace=wrap;rounded=0;" parent="1" vertex="1">
          <mxGeometry x="40" y="100" width="155" height="50" as="geometry" />
        </mxCell>
        <mxCell id="728Wsy-rSLTI5qKPh7U2-35" value="&lt;span style=&quot;color: rgb(0, 0, 0); font-family: Helvetica; font-size: 12px; font-style: normal; font-variant-ligatures: normal; font-variant-caps: normal; font-weight: 400; letter-spacing: normal; orphans: 2; text-align: center; text-indent: 0px; text-transform: none; widows: 2; word-spacing: 0px; -webkit-text-stroke-width: 0px; background-color: rgb(251, 251, 251); text-decoration-thickness: initial; text-decoration-style: initial; text-decoration-color: initial; float: none; display: inline !important;&quot;&gt;Transaction scoring&lt;/span&gt;&lt;br style=&quot;border-color: var(--border-color); color: rgb(0, 0, 0); font-family: Helvetica; font-size: 12px; font-style: normal; font-variant-ligatures: normal; font-variant-caps: normal; font-weight: 400; letter-spacing: normal; orphans: 2; text-align: center; text-indent: 0px; text-transform: none; widows: 2; word-spacing: 0px; -webkit-text-stroke-width: 0px; background-color: rgb(251, 251, 251); text-decoration-thickness: initial; text-decoration-style: initial; text-decoration-color: initial;&quot;&gt;&lt;span style=&quot;color: rgb(0, 0, 0); font-family: Helvetica; font-size: 12px; font-style: normal; font-variant-ligatures: normal; font-variant-caps: normal; font-weight: 400; letter-spacing: normal; orphans: 2; text-align: center; text-indent: 0px; text-transform: none; widows: 2; word-spacing: 0px; -webkit-text-stroke-width: 0px; background-color: rgb(251, 251, 251); text-decoration-thickness: initial; text-decoration-style: initial; text-decoration-color: initial; float: none; display: inline !important;&quot;&gt;service&lt;/span&gt;" style="text;whiteSpace=wrap;html=1;" parent="1" vertex="1">
          <mxGeometry x="72.5" y="440" width="130" height="50" as="geometry" />
        </mxCell>
        <mxCell id="728Wsy-rSLTI5qKPh7U2-39" style="edgeStyle=orthogonalEdgeStyle;rounded=0;orthogonalLoop=1;jettySize=auto;html=1;entryX=0;entryY=0.5;entryDx=0;entryDy=0;" parent="1" source="728Wsy-rSLTI5qKPh7U2-37" edge="1">
          <mxGeometry relative="1" as="geometry">
            <mxPoint x="220" y="530" as="targetPoint" />
          </mxGeometry>
        </mxCell>
        <mxCell id="728Wsy-rSLTI5qKPh7U2-37" value="Kafka Consumer" style="rounded=1;whiteSpace=wrap;html=1;" parent="1" vertex="1">
          <mxGeometry x="72.5" y="510" width="97.5" height="40" as="geometry" />
        </mxCell>
        <mxCell id="728Wsy-rSLTI5qKPh7U2-41" style="edgeStyle=orthogonalEdgeStyle;rounded=0;orthogonalLoop=1;jettySize=auto;html=1;exitX=1;exitY=0.5;exitDx=0;exitDy=0;entryX=0;entryY=0.5;entryDx=0;entryDy=0;" parent="1" source="728Wsy-rSLTI5qKPh7U2-40" target="728Wsy-rSLTI5qKPh7U2-44" edge="1">
          <mxGeometry relative="1" as="geometry">
            <mxPoint x="370" y="530.3333333333333" as="targetPoint" />
          </mxGeometry>
        </mxCell>
        <mxCell id="728Wsy-rSLTI5qKPh7U2-40" value="Get transaction and parse to Json" style="rounded=1;whiteSpace=wrap;html=1;" parent="1" vertex="1">
          <mxGeometry x="220" y="500" width="110" height="60" as="geometry" />
        </mxCell>
        <mxCell id="728Wsy-rSLTI5qKPh7U2-47" style="edgeStyle=orthogonalEdgeStyle;rounded=0;orthogonalLoop=1;jettySize=auto;html=1;exitX=0.5;exitY=1;exitDx=0;exitDy=0;entryX=0.5;entryY=1;entryDx=0;entryDy=0;" parent="1" source="728Wsy-rSLTI5qKPh7U2-44" target="728Wsy-rSLTI5qKPh7U2-40" edge="1">
          <mxGeometry relative="1" as="geometry" />
        </mxCell>
        <mxCell id="728Wsy-rSLTI5qKPh7U2-49" style="edgeStyle=orthogonalEdgeStyle;rounded=0;orthogonalLoop=1;jettySize=auto;html=1;exitX=1;exitY=0.5;exitDx=0;exitDy=0;" parent="1" source="728Wsy-rSLTI5qKPh7U2-44" edge="1">
          <mxGeometry relative="1" as="geometry">
            <mxPoint x="530" y="530.3333333333333" as="targetPoint" />
          </mxGeometry>
        </mxCell>
        <mxCell id="728Wsy-rSLTI5qKPh7U2-44" value="Valid ?" style="rhombus;whiteSpace=wrap;html=1;" parent="1" vertex="1">
          <mxGeometry x="380" y="490" width="80" height="80" as="geometry" />
        </mxCell>
        <mxCell id="728Wsy-rSLTI5qKPh7U2-48" value="No" style="text;html=1;align=center;verticalAlign=middle;resizable=0;points=[];autosize=1;strokeColor=none;fillColor=none;" parent="1" vertex="1">
          <mxGeometry x="335" y="600" width="40" height="30" as="geometry" />
        </mxCell>
        <mxCell id="728Wsy-rSLTI5qKPh7U2-50" value="Yes" style="text;html=1;align=center;verticalAlign=middle;resizable=0;points=[];autosize=1;strokeColor=none;fillColor=none;" parent="1" vertex="1">
          <mxGeometry x="470" y="495" width="40" height="30" as="geometry" />
        </mxCell>
        <mxCell id="728Wsy-rSLTI5qKPh7U2-52" style="edgeStyle=orthogonalEdgeStyle;rounded=0;orthogonalLoop=1;jettySize=auto;html=1;exitX=1;exitY=0.5;exitDx=0;exitDy=0;" parent="1" source="728Wsy-rSLTI5qKPh7U2-51" edge="1">
          <mxGeometry relative="1" as="geometry">
            <mxPoint x="700" y="530.3333333333333" as="targetPoint" />
          </mxGeometry>
        </mxCell>
        <mxCell id="728Wsy-rSLTI5qKPh7U2-51" value="Get lua-rules and transaction data" style="rounded=1;whiteSpace=wrap;html=1;" parent="1" vertex="1">
          <mxGeometry x="530" y="500" width="110" height="60" as="geometry" />
        </mxCell>
        <mxCell id="3APpipOa2k8dco2jOD3p-2" style="edgeStyle=orthogonalEdgeStyle;rounded=0;orthogonalLoop=1;jettySize=auto;html=1;exitX=0.5;exitY=1;exitDx=0;exitDy=0;" edge="1" parent="1" source="728Wsy-rSLTI5qKPh7U2-53" target="3APpipOa2k8dco2jOD3p-1">
          <mxGeometry relative="1" as="geometry" />
        </mxCell>
        <mxCell id="728Wsy-rSLTI5qKPh7U2-53" value="Lua Engine Executor" style="rounded=1;whiteSpace=wrap;html=1;" parent="1" vertex="1">
          <mxGeometry x="700" y="500" width="110" height="70" as="geometry" />
        </mxCell>
        <mxCell id="728Wsy-rSLTI5qKPh7U2-64" style="edgeStyle=orthogonalEdgeStyle;rounded=0;orthogonalLoop=1;jettySize=auto;html=1;exitX=0.25;exitY=1;exitDx=0;exitDy=0;entryX=1;entryY=0.5;entryDx=0;entryDy=0;" parent="1" source="728Wsy-rSLTI5qKPh7U2-53" target="728Wsy-rSLTI5qKPh7U2-63" edge="1">
          <mxGeometry relative="1" as="geometry" />
        </mxCell>
        <mxCell id="728Wsy-rSLTI5qKPh7U2-73" style="edgeStyle=orthogonalEdgeStyle;rounded=0;orthogonalLoop=1;jettySize=auto;html=1;exitX=0;exitY=0.5;exitDx=0;exitDy=0;entryX=0.39;entryY=1.025;entryDx=0;entryDy=0;entryPerimeter=0;" parent="1" source="728Wsy-rSLTI5qKPh7U2-63" target="728Wsy-rSLTI5qKPh7U2-40" edge="1">
          <mxGeometry relative="1" as="geometry">
            <mxPoint x="280" y="800.3333333333333" as="targetPoint" />
          </mxGeometry>
        </mxCell>
        <mxCell id="728Wsy-rSLTI5qKPh7U2-63" value="Commit offset to kafka" style="rounded=1;whiteSpace=wrap;html=1;" parent="1" vertex="1">
          <mxGeometry x="435" y="650" width="110" height="60" as="geometry" />
        </mxCell>
        <mxCell id="728Wsy-rSLTI5qKPh7U2-75" value="" style="rounded=1;whiteSpace=wrap;html=1;fillColor=none;" parent="1" vertex="1">
          <mxGeometry x="40" y="410" width="870" height="460" as="geometry" />
        </mxCell>
        <mxCell id="728Wsy-rSLTI5qKPh7U2-76" value="Main flow" style="text;html=1;align=center;verticalAlign=middle;resizable=0;points=[];autosize=1;strokeColor=none;fillColor=none;" parent="1" vertex="1">
          <mxGeometry x="40" y="370" width="70" height="30" as="geometry" />
        </mxCell>
        <mxCell id="3APpipOa2k8dco2jOD3p-1" value="Send transaction with finished status&lt;br&gt;to kafka topic by producer" style="rounded=1;whiteSpace=wrap;html=1;" vertex="1" parent="1">
          <mxGeometry x="700" y="720" width="110" height="60" as="geometry" />
        </mxCell>
        <mxCell id="3APpipOa2k8dco2jOD3p-15" style="edgeStyle=orthogonalEdgeStyle;rounded=0;orthogonalLoop=1;jettySize=auto;html=1;exitX=0.5;exitY=1;exitDx=0;exitDy=0;entryX=0.5;entryY=1;entryDx=0;entryDy=0;" edge="1" parent="1" source="3APpipOa2k8dco2jOD3p-7" target="728Wsy-rSLTI5qKPh7U2-2">
          <mxGeometry relative="1" as="geometry" />
        </mxCell>
        <mxCell id="3APpipOa2k8dco2jOD3p-7" value="kafka&lt;br&gt;producer" style="rounded=1;whiteSpace=wrap;html=1;" vertex="1" parent="1">
          <mxGeometry x="806" y="230" width="94" height="50" as="geometry" />
        </mxCell>
        <mxCell id="3APpipOa2k8dco2jOD3p-11" style="edgeStyle=orthogonalEdgeStyle;rounded=0;orthogonalLoop=1;jettySize=auto;html=1;exitX=1;exitY=0.5;exitDx=0;exitDy=0;entryX=0;entryY=0.5;entryDx=0;entryDy=0;" edge="1" parent="1" source="3APpipOa2k8dco2jOD3p-9" target="728Wsy-rSLTI5qKPh7U2-3">
          <mxGeometry relative="1" as="geometry" />
        </mxCell>
        <mxCell id="3APpipOa2k8dco2jOD3p-9" value="kafka&lt;br&gt;consumer" style="rounded=1;whiteSpace=wrap;html=1;" vertex="1" parent="1">
          <mxGeometry x="390" y="180" width="90" height="40" as="geometry" />
        </mxCell>
      </root>
    </mxGraphModel>
  </diagram>
</mxfile>
